<svg width="289" height="47" viewBox="0 0 289 47" fill="none" xmlns="http://www.w3.org/2000/svg">
<path d="M37.3697 23.6254C35.7974 17.8085 30.5991 13.471 24.5599 13.1002C18.4072 12.7222 12.7553 16.4201 10.467 22.0589C7.38118 21.3108 4.29611 20.5628 1.21105 19.8148C-0.0138218 19.5183 -0.522669 21.4068 0.704379 21.7048C0.782887 21.7245 0.859941 21.7426 0.938449 21.7623C7.19291 23.2786 13.4481 24.795 19.7033 26.3114C25.1923 27.6431 30.682 28.9741 36.171 30.3051C36.4778 30.3792 36.7387 30.3174 36.9401 30.1764C37.2868 30.095 37.6045 29.8551 37.6561 29.488C37.9331 27.5297 37.8887 25.543 37.3697 23.6254Z" fill="#F5C8E8"/>
<path d="M10.7773 25.0593C10.6487 25.7848 10.5811 26.5321 10.5811 27.2946C10.5811 34.3109 16.2692 39.9998 23.2855 39.9998C28.9999 39.9998 33.8325 36.2271 35.4302 31.0376C30.2545 29.7822 25.0788 28.5268 19.9031 27.2728C16.861 26.535 13.8188 25.7964 10.7773 25.0593ZM17.2826 34.2695C16.7417 34.2695 16.3041 33.4197 16.3041 32.3722C16.3041 31.3232 16.7425 30.4742 17.2826 30.4742C17.8227 30.4742 18.2603 31.3232 18.2603 32.3722C18.2603 33.4197 17.8227 34.2695 17.2826 34.2695ZM26.8831 30.4735C27.4232 30.4735 27.8608 31.3225 27.8608 32.3715C27.8608 33.419 27.4232 34.2687 26.8831 34.2687C26.3422 34.2687 25.9046 33.419 25.9046 32.3715C25.9053 31.3225 26.343 30.4735 26.8831 30.4735ZM25.2017 36.4342C25.6953 36.1086 26.1525 36.8987 25.6626 37.2215C23.6693 38.5351 20.907 38.8156 19.0076 37.1503C18.5641 36.7606 19.2118 36.118 19.6531 36.5048C21.1607 37.827 23.5348 37.5312 25.2017 36.4342Z" fill="#FFECDC"/>
<path d="M67.2085 0.496749C58.9885 -1.96898 56.9974 5.48636 56.7401 6.6458C54.9715 5.7466 52.9695 5.23702 50.8505 5.23702C44.45 5.23702 39.1289 9.85881 38.0436 15.9468C42.8754 15.7462 53.8702 14.7423 57.3136 9.80502L57.7512 9.17913L58.0035 9.89952C58.0282 9.96639 60.0788 15.6662 63.7476 16.5342C63.2831 13.0057 61.404 9.92423 58.6999 7.8743L58.7958 7.92664C61.3382 4.97971 62.9869 6.32422 64.032 8.70177C65.2647 11.5064 68.9855 12.9745 71.2088 10.8668V10.8668C71.9248 10.188 72.3433 9.24617 72.23 8.26609C71.9595 5.92448 70.9519 1.61986 67.2085 0.496749Z" fill="#82075F"/>
<path d="M59.4167 14.184C58.4833 12.9119 57.8494 11.5816 57.5238 10.8125C55.3837 13.3429 51.1799 15.1115 45.0112 16.0725C42.2613 16.5007 39.6727 16.6708 37.9288 16.7377C37.8714 17.2327 37.8416 17.7365 37.8416 18.2468C37.8416 25.4309 43.6657 31.2558 50.8506 31.2558C58.0355 31.2558 63.8596 25.4317 63.8596 18.2468C63.8596 17.9451 63.848 17.6463 63.8291 17.3505C62.2488 17.0684 60.7513 16.0013 59.4167 14.184ZM46.0943 22.9325C45.5542 22.9325 45.1173 22.082 45.1173 21.0338C45.1173 19.9856 45.5542 19.1358 46.0943 19.1358C46.6352 19.1358 47.0735 19.9856 47.0735 21.0338C47.0735 22.082 46.6352 22.9325 46.0943 22.9325ZM54.7077 25.5451C53.4232 26.634 51.8021 27.1872 50.1418 26.6972C49.3553 26.4654 48.5819 26.0881 47.9596 25.5451C47.5155 25.1576 48.1632 24.515 48.6051 24.8996C50.2029 26.2931 52.468 26.2524 54.0629 24.8996C54.5063 24.5208 55.1562 25.1634 54.7077 25.5451ZM55.697 22.9325C55.1562 22.9325 54.7178 22.0827 54.7178 21.0338C54.7178 19.9856 55.1562 19.1358 55.697 19.1358C56.2371 19.1358 56.674 19.9856 56.674 21.0338C56.674 22.0827 56.2371 22.9325 55.697 22.9325Z" fill="#B57335"/>
<path d="M88.86 15.3254L91.205 14.7654L90.995 13.5054H82.315L82.07 14.5554L83.75 15.5004L89.63 26.2454V32.0204L86.165 32.8604L86.445 34.0854H97.575L97.855 32.8604L94.39 32.0204V26.2454L100.27 15.5004L101.95 14.5554L101.705 13.5054H95.335L95.16 14.7304L97.82 15.4654L94.6 21.3454C93.445 23.4454 93.235 24.4604 93.235 24.4604H93.095C93.095 24.4604 93.06 23.3754 91.975 21.3104L88.86 15.3254ZM116.438 26.4554C116.438 21.1704 113.323 18.4754 108.598 18.4754C103.873 18.4754 100.758 21.1704 100.758 26.4554C100.758 31.7404 103.873 34.4354 108.598 34.4354C113.323 34.4354 116.438 31.7404 116.438 26.4554ZM105.623 26.4554C105.623 22.3954 106.253 20.0854 108.598 20.0854C110.943 20.0854 111.573 22.3954 111.573 26.4554C111.573 30.5154 110.943 32.8254 108.598 32.8254C106.253 32.8254 105.623 30.5154 105.623 26.4554ZM129.165 22.8854V30.6204C128.185 31.3554 127.415 31.6704 126.435 31.6704C125.035 31.6704 124.195 30.7954 124.195 28.6604V18.4754H123.425L118.14 20.1904V20.5754L119.61 22.8854V29.1154C119.61 33.1054 121.955 34.4354 124.475 34.4354C126.33 34.4354 128.08 33.6654 129.165 31.9154H129.305L129.69 34.3304L135.465 33.2454V32.6504L133.75 31.0404V18.4754H132.98L127.695 20.1904V20.5754L129.165 22.8854ZM136.421 20.6454H138.521V29.5004C138.521 33.0704 140.411 34.4354 143.141 34.4354C145.381 34.4354 147.131 33.4554 148.216 31.8104L147.866 30.9704C146.886 31.4954 146.186 31.7054 145.276 31.7054C143.876 31.7054 143.106 30.9354 143.106 28.9054V20.6454H147.446L147.691 18.8254H143.071V14.6954H142.021L136.421 19.4904V20.6454ZM160.835 32.4754L159.4 33.1054V34.0854H166.995L167.45 33.0704L165.42 32.4054V23.7604C165.42 19.6654 163.11 18.4754 160.835 18.4754C158.735 18.4754 156.88 19.4554 155.69 21.4154H155.55V10.2504H154.78L149.32 11.7204V12.1054L150.965 13.9954V32.4754L149.53 33.1054V34.0854H157.16L157.615 33.0704L155.55 32.4054V22.8504C156.355 22.1154 157.3 21.6604 158.35 21.6604C159.785 21.6604 160.835 22.7104 160.835 24.7404V32.4754ZM186.013 32.8604L182.373 31.9504V24.6004H185.418L186.958 27.5754L187.693 27.4354V20.0504L186.923 19.9104L185.383 22.7804H182.373V15.3254H187.728L190.318 19.1754L191.053 19.0004V13.5054H175.618L175.373 14.6254L177.613 15.4304V32.1604L175.373 32.9654L175.618 34.0854H185.733L186.013 32.8604ZM193.819 13.8204C193.819 15.3954 195.044 16.6204 196.654 16.6204C198.229 16.6204 199.489 15.3954 199.489 13.8204C199.489 12.2104 198.229 10.9504 196.654 10.9504C195.044 10.9504 193.819 12.2104 193.819 13.8204ZM198.964 32.4054V18.4754H198.194L192.909 20.1904V20.5754L194.379 22.8854V32.4754L192.944 33.1054V34.0854H200.574L201.029 33.0704L198.964 32.4054ZM207.753 31.0404C206.913 31.0404 206.493 30.6904 206.493 29.9904C206.493 29.2204 207.053 28.8354 207.788 28.5904C208.453 28.7654 209.153 28.8354 209.923 28.8354C213.003 28.8354 216.363 27.3304 216.363 23.9704C216.363 22.3954 215.523 21.2054 214.298 20.6454V20.2954C215.313 20.6804 216.153 21.0304 217.063 21.0304C218.323 21.0304 219.198 20.2954 219.198 18.9654C219.198 17.7404 218.393 16.9704 217.273 16.9704C216.188 16.9704 215.348 17.6704 215.348 18.7904C215.348 19.1404 215.418 19.4204 215.558 19.6304C213.913 18.8254 211.778 18.4754 209.958 18.4754C205.548 18.4754 203.238 20.8554 203.238 23.9354C203.238 26.2104 204.498 27.6104 206.493 28.3104C204.568 28.6954 203.203 29.7804 203.203 31.6004C203.203 33.4204 204.323 34.5754 206.318 34.8204V34.9254C203.938 35.2754 202.363 36.1854 202.363 38.1804C202.363 40.8754 205.513 41.8554 209.783 41.8554C214.403 41.8554 218.638 40.2804 218.638 36.0104C218.638 32.6504 216.538 31.0404 213.213 31.0404H207.753ZM207.683 35.2054H212.093C214.158 35.2054 214.858 36.0104 214.858 37.3404C214.858 39.5454 212.758 40.3154 209.993 40.3154C207.578 40.3154 206.213 39.4404 206.213 37.5854C206.213 36.4654 206.773 35.6954 207.683 35.2054ZM211.953 23.6904C211.953 25.9304 211.638 27.2954 209.818 27.2954C208.033 27.2954 207.718 25.9304 207.718 23.6904C207.718 21.4154 208.033 20.0504 209.818 20.0504C211.638 20.0504 211.953 21.4154 211.953 23.6904ZM230.303 22.8854V30.6204C229.323 31.3554 228.553 31.6704 227.573 31.6704C226.173 31.6704 225.333 30.7954 225.333 28.6604V18.4754H224.563L219.278 20.1904V20.5754L220.748 22.8854V29.1154C220.748 33.1054 223.093 34.4354 225.613 34.4354C227.468 34.4354 229.218 33.6654 230.303 31.9154H230.443L230.828 34.3304L236.603 33.2454V32.6504L234.888 31.0404V18.4754H234.118L228.833 20.1904V20.5754L230.303 22.8854ZM244.594 32.3354V23.6204C245.399 22.5704 246.239 21.7654 247.114 21.3804C247.114 22.8154 248.024 23.8304 249.529 23.8304C250.859 23.8304 251.944 22.8504 251.944 21.2754C251.944 19.5604 250.824 18.4754 248.969 18.4754C246.659 18.4754 245.294 20.2604 244.594 22.0454H244.454L244.559 18.4754H243.824L238.539 20.2254V20.6104L240.009 22.9204V32.4754L238.574 33.1054V34.0854H247.114L247.569 33.0004L244.594 32.3354ZM257.611 26.1404H266.571C266.711 25.4754 266.746 24.7054 266.746 24.1454C266.746 20.4704 264.366 18.4754 260.936 18.4754C256.701 18.4754 253.131 21.3804 253.131 26.6654C253.131 31.8804 256.281 34.4354 260.271 34.4354C263.246 34.4354 265.381 33.4204 266.501 30.9004L265.836 30.1304C264.541 31.1104 263.631 31.4954 262.056 31.4954C259.081 31.4954 257.681 29.3254 257.611 26.1404ZM260.621 20.0854C262.266 20.0854 262.721 21.5554 262.721 23.2004C262.721 23.7604 262.686 24.2154 262.616 24.4954H257.681C257.961 21.5204 259.081 20.0854 260.621 20.0854ZM269.096 29.2904L269.481 34.4354L271.301 33.6304C272.316 34.0854 273.716 34.4354 275.046 34.4354C278.861 34.4354 281.241 33.0004 281.241 29.6054C281.241 26.9454 279.946 25.4754 277.076 24.5304L274.556 23.6904C273.331 23.2704 272.806 22.7104 272.806 21.7304C272.806 20.7154 273.576 20.0504 274.836 20.0504C276.586 20.0504 277.916 21.0654 279.316 23.3054L280.156 23.0954L280.051 18.5104L278.126 19.1754C277.321 18.7554 275.991 18.4754 274.801 18.4754C271.651 18.4754 269.306 19.9804 269.306 23.3754C269.306 25.9654 270.636 27.3654 273.051 28.1004L275.326 28.8354C276.901 29.3254 277.566 29.9554 277.566 31.0754C277.566 32.4754 276.551 32.9304 275.151 32.9304C273.191 32.9304 271.896 32.1604 270.041 29.0804L269.096 29.2904Z" fill="white"/>
</svg>
