<?xml version="1.0" encoding="UTF-8"?>
<svg width="220px" height="220px" viewBox="0 0 220 220" version="1.1" xmlns="http://www.w3.org/2000/svg" xmlns:xlink="http://www.w3.org/1999/xlink">
    <title>reports</title>
    <g id="reports" stroke="none" stroke-width="1" fill="none" fill-rule="evenodd">
        <g transform="translate(21.000000, 21.000000)">
            <path d="M88.9998259,-2.27373675e-13 C39.8793372,-2.27373675e-13 0,39.8802855 0,89 C0,138.121455 39.8793372,178 88.9998259,178 C138.120141,178 178,138.121455 178,89 C178,39.8802855 138.120141,-2.27373675e-13 88.9998259,-2.27373675e-13 Z" id="Fill-13" fill="#5E61C8"></path>
            <path d="M88.9998259,-2.27373675e-13 C39.8793372,-2.27373675e-13 0,39.8802855 0,89 C0,138.121455 39.8793372,178 88.9998259,178 C138.120141,178 178,138.121455 178,89 C178,39.8802855 138.120141,-2.27373675e-13 88.9998259,-2.27373675e-13 Z" id="Stroke-14" stroke="#C4CEF6" stroke-width="4"></path>
        </g>
        <g id="carbon:book" transform="translate(60.000000, 60.000000)">
            <rect id="ViewBox" x="0" y="0" width="100" height="100"></rect>
            <polygon id="Path" fill="#C4CEF6" fill-rule="nonzero" points="59.375 31.25 81.25 31.25 81.25 37.5 59.375 37.5"></polygon>
            <polygon id="Path" fill="#C4CEF6" fill-rule="nonzero" points="59.375 46.875 81.25 46.875 81.25 53.125 59.375 53.125"></polygon>
            <polygon id="Path" fill="#C4CEF6" fill-rule="nonzero" points="59.375 62.5 81.25 62.5 81.25 68.75 59.375 68.75"></polygon>
            <polygon id="Path" fill="#C4CEF6" fill-rule="nonzero" points="18.75 31.25 40.625 31.25 40.625 37.5 18.75 37.5"></polygon>
            <polygon id="Path" fill="#C4CEF6" fill-rule="nonzero" points="18.75 46.875 40.625 46.875 40.625 53.125 18.75 53.125"></polygon>
            <polygon id="Path" fill="#C4CEF6" fill-rule="nonzero" points="18.75 62.5 40.625 62.5 40.625 68.75 18.75 68.75"></polygon>
            <path d="M87.5,15.625 L12.5,15.625 C9.04964836,15.6284452 6.25344519,18.4246484 6.25,21.875 L6.25,78.125 C6.25344519,81.5753516 9.04964836,84.3715548 12.5,84.375 L87.5,84.375 C90.9503516,84.3715548 93.7465548,81.5753516 93.75,78.125 L93.75,21.875 C93.7465548,18.4246484 90.9503516,15.6284452 87.5,15.625 Z M12.5,21.875 L46.875,21.875 L46.875,78.125 L12.5,78.125 L12.5,21.875 Z M53.125,78.125 L53.125,21.875 L87.5,21.875 L87.5,78.125 L53.125,78.125 Z" id="Shape" fill="#C4CEF6" fill-rule="nonzero"></path>
        </g>
    </g>
</svg>